# xmcd CD database file
#
# Track frame offsets:
#	150
#	18987
#	36105
#	61985
#	82907
#	99935
#	115237
#	144020
#	163480
#
# Disc length: 2516 seconds
#
# Revision: 9
# Processed by: cddbd v1.4PL0 Copyright (c) Steve Scherf et al.
# Submitted via: CDex 1.50Beta7
#
DISCID=6709d209
DTITLE=Robben Ford - Talk To Your Daughter
DYEAR=1988
DGENRE=Blues
TTITLE0=Talk To Your Daughter
TTITLE1=Wild About You (Can't Hold Out Much Longer)
TTITLE2=Help The Poor
TTITLE3=Ain't Got Nothin' But The Blues
TTITLE4=Born Under A Bad Sign
TTITLE5=I Got Over It
TTITLE6=Revelation
TTITLE7=Getaway
TTITLE8=Can't Let Her Go
EXTD=1988 - Warner Bros. Records YEAR: 1988
EXTT0=
EXTT1=
EXTT2=
EXTT3=
EXTT4=
EXTT5=
EXTT6=
EXTT7=
EXTT8=
PLAYORDER=
